<?xml version="1.0" standalone="no"?>
<!DOCTYPE svg PUBLIC "-//W3C//DTD SVG 20010904//EN"
 "http://www.w3.org/TR/2001/REC-SVG-20010904/DTD/svg10.dtd">
<svg version="1.0" xmlns="http://www.w3.org/2000/svg"
 width="1024.000000pt" height="1024.000000pt" viewBox="0 0 1024.000000 1024.000000"
 preserveAspectRatio="xMidYMid meet">

<g transform="translate(0.000000,1024.000000) scale(0.100000,-0.100000)"
fill="#000000" stroke="none">
<path d="M5011 5484 c0 -11 3 -14 6 -6 3 7 2 16 -1 19 -3 4 -6 -2 -5 -13z"/>
<path d="M5487 5473 c-4 -3 -7 -14 -7 -22 0 -9 -12 -34 -26 -55 -23 -34 -25
-44 -19 -94 8 -61 20 -92 41 -105 10 -6 14 -31 14 -88 l0 -80 28 3 c26 3 27 4
30 78 2 61 6 78 23 92 14 12 24 39 32 84 10 57 9 69 -5 92 -10 15 -25 44 -34
65 -13 30 -22 37 -43 37 -15 0 -31 -3 -34 -7z m43 -43 c0 -5 -2 -10 -4 -10 -3
0 -8 5 -11 10 -3 6 -1 10 4 10 6 0 11 -4 11 -10z m18 -127 c3 -20 -1 -23 -27
-23 -23 0 -31 5 -31 18 0 25 10 33 35 30 12 -2 21 -12 23 -25z"/>
<path d="M4700 5432 c-119 -2 -157 -6 -166 -16 -5 -8 -19 -14 -30 -13 -17 2
-19 -6 -22 -77 -3 -88 3 -100 51 -101 17 -1 59 -2 93 -3 l60 -2 0 -97 c-1 -95
0 -98 22 -101 40 -6 52 14 52 89 0 37 -4 71 -10 74 -5 3 -10 16 -10 29 0 39
-18 46 -121 46 -56 0 -101 4 -104 10 -4 6 -3 25 1 43 6 30 7 31 15 10 8 -23
10 -23 214 -23 125 0 205 4 205 10 0 5 7 7 15 4 12 -5 15 2 15 29 0 20 3 42 6
51 3 9 0 18 -7 20 -8 2 -23 8 -34 12 -24 9 -47 10 -245 6z"/>
<path d="M5216 5418 c-19 -26 -8 -49 11 -23 12 18 18 45 9 45 -3 0 -12 -10
-20 -22z"/>
<path d="M5690 5382 c-8 -4 -17 -18 -18 -31 -3 -19 0 -22 13 -17 9 3 23 6 31
6 8 0 14 10 14 25 0 25 -11 30 -40 17z"/>
<path d="M5361 5176 c-15 -61 -14 -136 2 -136 45 1 57 12 57 56 0 35 -32 124
-45 124 -1 0 -8 -20 -14 -44z"/>
<path d="M4580 5116 c0 -25 -5 -48 -12 -52 -7 -5 -5 -11 7 -21 31 -22 35 -16
35 52 0 51 -3 65 -15 65 -11 0 -15 -12 -15 -44z"/>
<path d="M5619 5088 c-10 -38 3 -84 20 -73 10 6 1 64 -10 71 -5 3 -9 4 -10 2z"/>
<path d="M5012 5065 c-11 -13 -9 -15 12 -15 18 0 24 4 20 15 -8 19 -15 18 -32
0z"/>
<path d="M5859 5054 c-9 -11 -7 -22 6 -50 l17 -36 14 29 c8 15 21 33 29 39 12
9 8 13 -20 21 -27 9 -37 8 -46 -3z"/>
<path d="M7145 5030 c3 -5 10 -10 16 -10 5 0 9 5 9 10 0 6 -7 10 -16 10 -8 0
-12 -4 -9 -10z"/>
<path d="M6895 4985 c-3 -8 -7 -22 -10 -30 -2 -9 -11 -12 -22 -9 -14 5 -15 4
-4 -4 11 -8 12 -24 7 -68 -4 -32 -10 -62 -15 -68 -5 -6 -10 -69 -12 -141 -4
-145 -5 -144 68 -130 29 5 33 8 22 21 -9 11 -9 18 -2 22 11 7 33 250 33 361
l0 61 -30 0 c-19 0 -33 -6 -35 -15z"/>
<path d="M7171 4928 l-71 -73 0 68 0 67 -50 0 c-27 0 -50 -3 -50 -7 0 -5 -5
-62 -10 -128 -5 -66 -10 -165 -11 -220 l-2 -100 49 0 49 0 3 83 c2 60 6 82 15
80 7 -2 35 -38 62 -80 28 -42 53 -77 56 -77 3 -1 23 14 44 32 l38 33 -56 81
c-32 44 -57 85 -57 91 0 6 29 41 65 79 35 37 65 70 65 74 0 3 -15 20 -34 38
l-34 33 -71 -74z"/>
<path d="M4181 4941 c2 -34 3 -38 6 -16 6 36 20 47 46 33 13 -6 22 -7 29 0 18
18 -2 32 -43 30 l-39 -1 1 -46z"/>
<path d="M5152 4981 c-10 -6 -10 -10 2 -21 9 -7 13 -16 11 -21 -11 -17 27 -26
62 -14 50 17 62 42 28 55 -32 12 -85 13 -103 1z"/>
<path d="M5963 4978 c-6 -7 -16 -31 -23 -53 -20 -62 -60 -148 -66 -142 -3 3
-20 47 -37 99 l-32 93 -48 -1 c-30 0 -52 -6 -58 -15 -5 -8 -8 -80 -7 -161 2
-80 0 -141 -4 -135 -4 7 -8 -21 -8 -60 l0 -73 45 0 c52 0 60 11 64 85 2 28 4
52 6 53 2 2 15 -19 29 -47 15 -28 33 -51 40 -51 13 0 74 81 78 104 1 6 4 -23
7 -64 l6 -75 50 0 50 0 0 217 c0 119 -2 219 -5 221 -14 14 -77 18 -87 5z"/>
<path d="M6245 4967 c-21 -32 -133 -347 -141 -396 l-7 -41 50 0 c54 0 66 9 77
52 6 28 11 30 83 42 35 6 38 1 45 -64 3 -23 8 -25 56 -28 42 -2 52 0 52 13 0
37 -41 266 -60 334 -31 109 -32 111 -90 111 -41 0 -52 -4 -65 -23z m69 -179
c13 -49 7 -68 -19 -68 -14 0 -25 5 -25 11 0 8 -5 8 -15 -1 -17 -14 -20 1 -5
35 l9 20 1 -20 c1 -16 5 -13 17 13 20 38 28 40 37 10z m76 -47 c0 -6 -4 -13
-10 -16 -5 -3 -10 1 -10 9 0 9 5 16 10 16 6 0 10 -4 10 -9z m33 -124 c6 -20 6
-32 -2 -40 -15 -15 -29 1 -37 42 -6 28 -4 33 11 30 10 -2 23 -17 28 -32z"/>
<path d="M6609 4975 c-26 -14 -64 -66 -88 -120 -7 -16 -15 -73 -18 -125 -5
-78 -2 -102 11 -128 35 -68 113 -89 194 -52 34 15 47 29 64 67 24 55 28 124 8
148 -11 13 -25 16 -63 12 -56 -5 -67 -16 -67 -69 0 -28 4 -38 16 -38 25 0 12
-35 -14 -38 -40 -6 -52 14 -52 88 0 76 13 125 43 158 34 37 57 24 57 -33 0
-19 7 -23 43 -28 46 -7 67 8 67 49 0 34 -27 91 -52 108 -28 20 -114 20 -149 1z"/>
<path d="M4751 4975 c3 -2 24 -7 48 -10 54 -6 61 -11 56 -35 -2 -11 1 -23 7
-26 7 -4 8 -2 4 4 -4 7 -3 12 2 12 6 0 9 8 8 17 -1 17 3 19 42 22 15 1 15 3 2
11 -15 9 -178 15 -169 5z"/>
<path d="M5460 4977 c3 -3 23 -7 45 -10 22 -2 54 -10 70 -16 28 -12 29 -11 13
5 -11 11 -38 19 -75 22 -32 2 -56 2 -53 -1z"/>
<path d="M6138 4973 c-14 -4 -18 -15 -18 -59 0 -30 2 -54 4 -54 2 0 13 27 24
60 12 33 18 59 14 59 -4 -1 -15 -3 -24 -6z"/>
<path d="M3611 4900 l0 -55 19 55 c11 30 20 56 20 57 0 1 -9 1 -20 0 -18 -1
-20 -8 -19 -57z"/>
<path d="M6454 4944 c3 -9 6 -18 6 -20 0 -2 5 -4 10 -4 6 0 10 9 10 20 0 12
-7 20 -16 20 -11 0 -14 -5 -10 -16z"/>
<path d="M3291 4935 c0 -11 4 -27 9 -35 9 -13 10 -13 9 0 0 8 -4 24 -9 35 l-9
20 0 -20z"/>
<path d="M4812 4865 c-15 -33 -7 -84 9 -68 6 6 9 30 7 54 l-4 44 -12 -30z"/>
<path d="M5001 4887 c-1 -5 4 -17 9 -28 7 -13 7 -19 0 -19 -5 0 -10 -9 -10
-19 0 -14 6 -19 20 -16 13 3 20 -2 21 -13 1 -10 4 -7 8 8 9 30 3 50 -14 50 -6
0 -17 10 -23 23 -6 12 -11 18 -11 14z"/>
<path d="M4386 4845 c-8 -31 -33 -33 -39 -2 -3 16 -5 13 -6 -11 -1 -23 6 -40
24 -57 27 -28 45 -32 45 -10 0 8 9 19 20 25 19 10 19 12 2 45 -20 41 -37 45
-46 10z"/>
<path d="M5340 4837 c0 -20 4 -38 10 -42 5 -3 8 9 6 29 -3 48 -16 58 -16 13z"/>
<path d="M4899 4718 c0 -62 -2 -134 -5 -160 -2 -26 0 -49 6 -53 7 -4 10 49 10
159 0 91 -2 166 -5 166 -3 0 -5 -51 -6 -112z"/>
<path d="M4637 4798 c-16 -12 -16 -15 3 -43 l20 -30 0 43 c0 47 0 47 -23 30z"/>
<path d="M4200 4761 c0 -11 4 -22 9 -25 5 -3 8 5 7 19 -1 29 -16 34 -16 6z"/>
<path d="M4453 4762 c-8 -5 -9 -13 -3 -22 7 -12 10 -12 16 3 8 21 3 29 -13 19z"/>
<path d="M4512 4735 c-7 -8 -8 -15 -3 -15 5 0 13 5 16 10 3 6 10 10 14 10 9 0
35 -51 32 -63 -1 -5 3 -6 9 -2 14 9 -20 69 -41 72 -7 2 -20 -4 -27 -12z"/>
<path d="M3518 4650 c-2 -44 0 -80 5 -80 4 0 7 36 7 80 0 44 -2 80 -4 80 -3 0
-6 -36 -8 -80z"/>
<path d="M5349 4653 c-11 -3 -18 -20 -22 -55 -7 -58 -6 -62 20 -54 14 4 19 16
19 46 1 23 -4 40 -10 40 -6 0 -4 4 4 10 17 11 11 18 -11 13z"/>
<path d="M5210 4643 c-30 -5 -70 -24 -70 -34 0 -4 27 -9 60 -11 56 -3 60 -1
60 18 0 25 -13 31 -50 27z"/>
<path d="M4054 4615 c-4 -8 -12 -15 -20 -15 -19 0 -18 -15 2 -34 30 -31 53
-14 30 22 -4 7 -5 19 -2 27 3 8 3 15 0 15 -2 0 -7 -7 -10 -15z"/>
<path d="M4642 4565 c-6 -14 -7 -25 -2 -25 9 0 25 39 18 46 -3 2 -10 -7 -16
-21z"/>
<path d="M4776 4581 c-4 -7 -5 -15 -2 -18 9 -9 19 4 14 18 -4 11 -6 11 -12 0z"/>
<path d="M3446 4555 c-4 -12 4 -15 45 -15 30 0 48 4 44 10 -3 5 -19 7 -35 3
-19 -3 -30 -1 -30 6 0 16 -17 13 -24 -4z"/>
<path d="M3665 4561 c-3 -5 -21 -8 -40 -6 -19 2 -35 -1 -35 -6 0 -5 23 -9 50
-9 38 0 50 4 50 15 0 17 -16 20 -25 6z"/>
<path d="M4155 4560 c-3 -6 1 -7 9 -4 18 7 21 14 7 14 -6 0 -13 -4 -16 -10z"/>
<path d="M4760 4546 c0 -9 30 -14 35 -6 4 6 -3 10 -14 10 -12 0 -21 -2 -21 -4z"/>
<path d="M7130 4510 c0 -5 5 -10 11 -10 5 0 7 5 4 10 -3 6 -8 10 -11 10 -2 0
-4 -4 -4 -10z"/>
</g>
</svg>
